<svg width="30" height="30" viewBox="0 0 30 30" fill="none" xmlns="http://www.w3.org/2000/svg">
<circle cx="15" cy="15" r="14.15" fill="white" stroke="#1A2A36" stroke-width="1.7"/>
<path d="M19.9498 17.6967C19.1873 16.8798 18.2799 16.2751 17.2897 15.909C18.3502 15.1265 19.0469 13.8168 19.0469 12.3359C19.0469 9.94511 17.2314 8 15 8C12.7686 8 10.9531 9.94511 10.9531 12.3359C10.9531 13.8168 11.6498 15.1265 12.7103 15.909C11.7202 16.2751 10.8127 16.8798 10.0503 17.6967C8.72814 19.1133 8 20.9967 8 23H9.09375C9.09375 19.5107 11.7433 16.6719 15 16.6719C18.2567 16.6719 20.9062 19.5107 20.9062 23H22C22 20.9967 21.2719 19.1133 19.9498 17.6967ZM15 15.5C13.3717 15.5 12.0469 14.0806 12.0469 12.3359C12.0469 10.5913 13.3717 9.17188 15 9.17188C16.6283 9.17188 17.9531 10.5913 17.9531 12.3359C17.9531 14.0806 16.6283 15.5 15 15.5Z" fill="#1A2A36" stroke="#1A2A36"/>
</svg>
